<svg id="Layer_1" data-name="Layer 1" xmlns="http://www.w3.org/2000/svg" viewBox="0 0 270 46"><defs><style>.cls-1{fill:#fbbc43;}.cls-2{fill:#fff;}</style></defs><title>logo</title><polygon class="cls-1" points="14.77 7.2 12.05 7.2 11.39 9.92 14.11 9.92 14.77 7.2"/><polygon class="cls-1" points="16.83 9.92 16.17 12.64 18.89 12.64 19.55 9.92 16.83 9.92"/><polygon class="cls-2" points="31.09 7.2 20.21 7.2 19.55 9.92 22.27 9.92 21.61 12.64 18.89 12.64 18.23 15.36 29.1 15.36 31.09 7.2"/><polygon class="cls-1" points="10.73 12.64 8.01 12.64 7.35 15.36 10.07 15.36 10.73 12.64"/><polygon class="cls-2" points="12.79 15.36 15.51 15.36 16.17 12.64 13.45 12.64 12.79 15.36"/><polygon class="cls-2" points="6.03 20.8 5.37 23.52 8.09 23.52 8.75 20.8 6.03 20.8"/><polygon class="cls-2" points="28.44 18.08 17.55 18.08 16.89 20.8 14.19 20.8 13.52 23.52 16.24 23.52 15.58 26.23 18.3 26.23 15.65 37.11 23.81 37.11 28.44 18.08"/><polygon class="cls-1" points="1.99 26.23 4.7 26.23 5.37 23.52 2.65 23.52 1.99 26.23"/><polygon class="cls-1" points="8.09 23.52 7.42 26.23 10.14 26.23 10.8 23.52 8.09 23.52"/><polygon class="cls-2" points="10.14 26.23 9.48 28.95 12.2 28.95 14.92 28.95 15.58 26.23 12.86 26.23 10.14 26.23"/><polygon class="cls-2" points="6.1 31.67 8.82 31.67 9.48 28.95 6.76 28.95 6.1 31.67"/><polygon class="cls-2" points="0 34.39 2.72 34.39 3.38 31.67 0.66 31.67 0 34.39"/><polygon class="cls-1" points="10.88 34.39 13.6 34.39 14.26 31.67 11.54 31.67 10.88 34.39"/><polygon class="cls-2" points="7.5 37.11 10.21 37.11 10.88 34.39 8.16 34.39 7.5 37.11"/><path class="cls-2" d="M55.5,7.2H33.83l-2,8.13h17.6a1.06,1.06,0,0,1,1,1.31l-.1.4a1.32,1.32,0,0,1-1.28,1H31.19L26.55,37.11H37.46l2.63-10.88H50.83a7,7,0,0,0,6.76-5.31l2-8.46A4.27,4.27,0,0,0,55.5,7.2Z"/><path class="cls-2" d="M132.23,24.82h4.38l1-3.86h-4.43l1.34-5.37h-4.62L125.76,32.5a8.8,8.8,0,0,0-.32,2,2,2,0,0,0,1,2,9,9,0,0,0,3.56.51h3.72l.93-3.91h-1.93a4.77,4.77,0,0,1-1.74-.18.76.76,0,0,1-.4-.8,6.27,6.27,0,0,1,.21-1.23Z"/><path class="cls-2" d="M113.15,21.1a4.36,4.36,0,0,0-1.81.66,3.87,3.87,0,0,0-1.2,1.36,12.08,12.08,0,0,0-.85,2.36l-1.7,7a8.35,8.35,0,0,0-.33,2,3.06,3.06,0,0,0,.16,1.22,1.59,1.59,0,0,0,.69.76,4.08,4.08,0,0,0,1.41.42,14.41,14.41,0,0,0,2.26.14h9.56l.92-3.91H114.4a4.77,4.77,0,0,1-1.74-.18.76.76,0,0,1-.4-.8,6.27,6.27,0,0,1,.21-1.23l.93-3.86c.1-.47.25-.85.35-1.18a1.88,1.88,0,0,1,.49-.7,1.72,1.72,0,0,1,.81-.33,9.16,9.16,0,0,1,1.36-.1h7.87l.93-3.86h-9.56C114.75,21,113.85,21,113.15,21.1Z"/><path class="cls-2" d="M76.6,21.43A8.86,8.86,0,0,0,73,20.91H66.44A7.62,7.62,0,0,0,62.08,22,5.86,5.86,0,0,0,60,25.53l-1.65,7c-.1.42-.21.8-.26,1.13a7.13,7.13,0,0,0-.11.89,2.33,2.33,0,0,0,.21,1.22,1.4,1.4,0,0,0,.74.76,4,4,0,0,0,1.4.42,15,15,0,0,0,2.26.1H73.73l.93-3.87H65.24A4.73,4.73,0,0,1,63.5,33a.84.84,0,0,1-.41-.85,7.53,7.53,0,0,1,.17-1.18l.93-3.86a4.23,4.23,0,0,1,.4-1.18,2.8,2.8,0,0,1,.53-.7,2,2,0,0,1,.86-.33,8.27,8.27,0,0,1,1.27-.1h3.67c1.18,0,1.79.38,1.77,1.13,0,.1-.1.47-.26,1.18H66.17l-.93,3.86H75.93l1.34-5.46a9.19,9.19,0,0,0,.32-2.07A2,2,0,0,0,76.6,21.43Z"/><polygon class="cls-2" points="80.34 15.59 79.68 18.31 82.42 18.31 77.87 37.06 82.49 37.06 87.69 15.59 80.34 15.59"/><path class="cls-2" d="M105.32,21.43a8.79,8.79,0,0,0-3.57-.52H95.16A7.58,7.58,0,0,0,90.81,22a5.81,5.81,0,0,0-2.1,3.54l-1.65,7c-.11.42-.21.8-.26,1.13a7.38,7.38,0,0,0-.12.89,2.33,2.33,0,0,0,.21,1.22,1.48,1.48,0,0,0,.74.76,4,4,0,0,0,1.4.42,15.09,15.09,0,0,0,2.26.1h11.16l.93-3.87H94A4.67,4.67,0,0,1,92.23,33a.84.84,0,0,1-.41-.85A6.5,6.5,0,0,1,92,30.94l.92-3.86a5,5,0,0,1,.4-1.18,2.82,2.82,0,0,1,.54-.7,1.94,1.94,0,0,1,.85-.33,8.41,8.41,0,0,1,1.28-.1h3.67c1.18,0,1.78.38,1.76,1.13,0,.1-.1.47-.26,1.18H94.89L94,30.94h10.69L106,25.48a9.26,9.26,0,0,0,.33-2.07A2.12,2.12,0,0,0,105.32,21.43Z"/><path class="cls-2" d="M149,20.91V21a3.94,3.94,0,0,0-3.48,2l.46-2h-4.61l-3.92,16.15h4.61l2.43-10c.1-.47.25-.85.35-1.18a1.88,1.88,0,0,1,.49-.7,1.73,1.73,0,0,1,.8-.33,9.43,9.43,0,0,1,1.37-.1h5.37l.93-3.86Z"/><path class="cls-2" d="M173.45,22.23a2.3,2.3,0,0,0-.74-.75,4.28,4.28,0,0,0-1.41-.43,15.69,15.69,0,0,0-2.25-.14h-7.11a14.14,14.14,0,0,0-2.64.19,3.66,3.66,0,0,0-2.92,2,12.77,12.77,0,0,0-.85,2.36l-1.7,7a9.47,9.47,0,0,0-.33,2,2,2,0,0,0,.95,2,9,9,0,0,0,3.57.51h7.11a13.69,13.69,0,0,0,2.69-.19,4.06,4.06,0,0,0,1.8-.65,3.63,3.63,0,0,0,1.16-1.37,11.73,11.73,0,0,0,.8-2.35l1.7-7a8.35,8.35,0,0,0,.33-2A3.23,3.23,0,0,0,173.45,22.23Zm-5.14,4.85-.93,3.86a8.23,8.23,0,0,1-.36,1.18,1.46,1.46,0,0,1-.48.66,1.89,1.89,0,0,1-.81.33,11.11,11.11,0,0,1-1.37.09h-3.67A4.66,4.66,0,0,1,159,33a.77.77,0,0,1-.41-.8,6.53,6.53,0,0,1,.22-1.22l.93-3.86A8.53,8.53,0,0,1,160,25.9a1.62,1.62,0,0,1,.53-.66,2.12,2.12,0,0,1,.86-.28,9.27,9.27,0,0,1,1.27-.05h3.67a4.66,4.66,0,0,1,1.74.19.77.77,0,0,1,.41.8A7.52,7.52,0,0,1,168.31,27.08Z"/><path class="cls-2" d="M209.7,27.13c.1-.47.25-.85.35-1.18a1.88,1.88,0,0,1,.49-.71,1.84,1.84,0,0,1,.8-.33,11.41,11.41,0,0,1,1.37-.09h7.87L221.5,21H212a21,21,0,0,0-2.55.14,4.26,4.26,0,0,0-1.8.66,3.8,3.8,0,0,0-1.21,1.36,12.77,12.77,0,0,0-.85,2.36l-1.65,7.06a8.42,8.42,0,0,0-.33,2,3.08,3.08,0,0,0,.16,1.22,1.59,1.59,0,0,0,.69.76,4.57,4.57,0,0,0,1.41.42,15.74,15.74,0,0,0,2.26.14h9.55l.93-3.91H210.7A4.7,4.7,0,0,1,209,33a.77.77,0,0,1-.41-.8,6.53,6.53,0,0,1,.22-1.22Z"/><path class="cls-2" d="M230.37,24.77H242l.93-3.91H230.5a14.21,14.21,0,0,0-2.64.19,3.79,3.79,0,0,0-1.76.66,3.65,3.65,0,0,0-1.16,1.41,15.26,15.26,0,0,0-.85,2.36l-.36,1.6a1,1,0,0,0,0,.38v.37a2.61,2.61,0,0,0,1,2.31,5,5,0,0,0,3.19.85h6.78c.89,0,1.36.33,1.3.94a1.26,1.26,0,0,1-.54.9,2.05,2.05,0,0,1-1.33.37H222.24l-.93,3.91h12.43a14.51,14.51,0,0,0,2.69-.19,3.67,3.67,0,0,0,2.91-2,11.79,11.79,0,0,0,.81-2.36l.2-.8a5.28,5.28,0,0,0,.17-1.22c0-2.26-1.11-3.35-3.51-3.35h-7.16c-1,0-1.45-.33-1.44-.94a1.41,1.41,0,0,1,.54-1h0A2.28,2.28,0,0,1,230.37,24.77Z"/><path class="cls-2" d="M193.48,21.43a8.86,8.86,0,0,0-3.57-.52H185.1a3.94,3.94,0,0,0-3.48,2l.47-2h-4.61l-3.92,16.15h4.61l2.43-10c.1-.47.25-.84.35-1.17a1.81,1.81,0,0,1,.49-.71,1.84,1.84,0,0,1,.8-.33,9.65,9.65,0,0,1,1.37-.09h3.68a4.7,4.7,0,0,1,1.73.18.77.77,0,0,1,.41.8,6.27,6.27,0,0,1-.21,1.23l-2.43,10h4.57l2.83-11.59a8.28,8.28,0,0,0,.33-2A2,2,0,0,0,193.48,21.43Z"/><polygon class="cls-2" points="194.61 37.06 199.22 37.06 203.14 20.86 198.53 20.86 194.61 37.06"/><path class="cls-1" d="M202.12,19.1a3.33,3.33,0,1,0-3.33-3.33A3.33,3.33,0,0,0,202.12,19.1Zm0-4.83a1.5,1.5,0,1,1-1.5,1.5A1.5,1.5,0,0,1,202.12,14.27Z"/><path class="cls-1" d="M266.67,19a3.33,3.33,0,0,0-2.84,1.61H246.41l-.79,3.25h18.1A3.33,3.33,0,1,0,266.67,19Zm0,4.83a1.5,1.5,0,1,1,1.5-1.5A1.5,1.5,0,0,1,266.67,23.82Z"/><path class="cls-1" d="M260.71,25.58a3.31,3.31,0,0,0-2.87,1.66h-13L244,30.48h13.74a3.33,3.33,0,1,0,2.93-4.9Zm0,4.83a1.5,1.5,0,1,1,1.5-1.5A1.5,1.5,0,0,1,260.71,30.41Z"/><path class="cls-1" d="M254.53,32.15a3.32,3.32,0,0,0-2.92,1.72h-8.29l-.79,3.24h9.1a3.32,3.32,0,1,0,2.9-5Zm0,4.82a1.5,1.5,0,1,1,1.5-1.5A1.5,1.5,0,0,1,254.53,37Z"/></svg>